# xmcd
#
# Track frame offsets:
#	150
#	17954
#	31656
#	47039
#	65609
#	83780
#	97699
#	115107
#	134445
#	151134
#	167488
#	180283
#	196488
#	207531
#	223698
#	236862
#	255252
#	270491
#	285713
#	309601
#
# Disc length: 4328 seconds
#
# Revision: 1
# Processed by: cddbd v1.5.2PL0 Copyright (c) Steve Scherf et al.
# Submitted via: dBpowerAMP V4.0
#
DISCID=1010e614
DTITLE=Various Artist - Hott Urban Volume 29 Can
DYEAR=2017
DGENRE=Urban
TTITLE0=Bam - Jay-Z ft. Damian Marley
TTITLE1=Live Up To My Name - Baka Not Nice
TTITLE2=Sky Walker - Miguel ft. Travis Scott
TTITLE3=Post and Delete - Zoey Dollaz ft. Chris Brown
TTITLE4=Flipmode - Fabolous ft. Chris Brown And Velous
TTITLE5=Terrified - Childish Gambino
TTITLE6=I Get The Bag - Gucci Mane ft. Migos
TTITLE7=4am - 2 Chainz ft. Travi$ Scott
TTITLE8=Miss It - Yung Bleu
TTITLE9=When We - Tank
TTITLE10=Doin It - Moneybagg Yo
TTITLE11=Show Me - Swift ft. Quavo
TTITLE12=Catch Me Outside - Ski Mask The Slump God
TTITLE13=Love. - Kendrick Lamar ft. Zacari
TTITLE14=Plain Jane - A$ap Ferg
TTITLE15=Dangerous Games - 112
TTITLE16=Hard For Me - Leela James
TTITLE17=Something New - Wiz Khalifa ft. ty Dolla $ign
TTITLE18=Perfect - Dave East ft. Chris Brown
TTITLE19=Frustrated - R.Lum.R
EXTD=
EXTT0=
EXTT1=
EXTT2=
EXTT3=
EXTT4=
EXTT5=
EXTT6=
EXTT7=
EXTT8=
EXTT9=
EXTT10=
EXTT11=
EXTT12=
EXTT13=
EXTT14=
EXTT15=
EXTT16=
EXTT17=
EXTT18=
EXTT19=
PLAYORDER=
